<?xml version="1.0" encoding="UTF-8"?><svg id="Layer_1" xmlns="http://www.w3.org/2000/svg" viewBox="0 0 125.41 84.72"><defs><style>.cls-1{fill:#fff;stroke-width:0px;}</style></defs><path class="cls-1" d="M120.02,46.74c-3.59-4.07-10.47-8.48-20.62-13.25-1.09-.52-2.64-1.22-4.67-2.12-8.43-3.78-13.39-7.48-14.93-11.11-3.4,3.76-5.78,9.42-6.4,15.89,4.11,3.34,11.43,7.35,21.97,12.03,6.26,2.83,10.57,5.44,12.93,7.83,2.36,2.38,3.53,5.13,3.53,8.24,0,3.36-1.25,6.12-3.74,8.26-2.5,2.15-5.71,3.22-9.67,3.23-.47,0-.96-.02-1.43-.05t0,0c-.35-.02-.68-.05-1.03-.09-12.54-1.29-22.6-12.5-24.15-26.77-.34-2.05-.53-4.2-.53-6.41,0-2.44.23-4.8.64-7.04,1.32-11.26,7.99-19.84,16.04-19.98.05,0,.1-.01.15-.02-.85-.15-1.72-.24-2.61-.24-.3,0-.6.02-.9.03-.34.03-.67.05-1.01.1-.06,0-.13.01-.18.02-6.38.96-11.95,6.3-15.46,14.06-.05-.12-2.64,7.09-3.62,13.4v-13.74c0-7.19-.65-12.3-1.94-15.3-1.3-3.01-3.54-5.58-6.73-7.71-2.74-1.85-5.98-3.28-9.75-4.29-3.76-1.02-7.73-1.53-11.92-1.53-9.97,0-17.81,2.03-23.53,6.07C4.75,10.29,1.89,15.72,1.89,22.54c0,0-.03.44-.03.64,0,1.55.33,3,.92,4.32.1.22.21.44.32.66.02.04.05.08.07.12.1.18.21.36.32.53,1.88,3.01,5.22,5.02,9.03,5.02,5.88,0,10.64-4.77,10.63-10.65,0-4.48-2.78-8.32-6.7-9.88,1.18-1.15,2.71-2.15,4.58-2.97,3.05-1.34,6.5-2.01,10.34-2.01,6.14,0,10.82,1.51,14.03,4.52,3.2,3.01,4.82,7.44,4.82,13.27v6.37c-16.62,2.74-29.15,6.88-37.58,12.41C4.21,50.43,0,57.29,0,65.47c0,5.73,2,10.25,6.04,13.59,4.03,3.33,9.5,5,16.42,5,5.89,0,11.35-1.21,16.39-3.61,5-2.39,9.13-5.77,12.42-10.12v3.64c-.17,3.02-2.67,5.41-5.72,5.4v4.69s5.72,0,5.72,0h0s3.66,0,3.66,0h2.26s0,0,0,0h12.89s0-4.69,0-4.69c-3.12,0-5.65-2.48-5.74-5.59-.01-.03-.02-.06-.03-.1v-15.3c.84,14.66,15.2,26.33,32.8,26.32,4.52,0,8.82-.78,12.74-2.16.44-.16.88-.33,1.3-.5.11-.05.21-.08.32-.12,0,0,0-.02,0-.02,2.43-1.04,4.65-2.44,6.65-4.21,4.85-4.3,7.28-9.71,7.28-16.22,0-5.76-1.8-10.68-5.39-14.74ZM50.34,47.15v.32s0,0,0,0c-.21,7.92-2.18,14.13-5.92,18.61-3.97,4.75-9.5,7.12-16.62,7.12-3.47,0-6.17-.93-8.09-2.8-1.81-1.75-2.76-4.14-2.87-7.17-.02-.35-.04-.7-.04-1.05,0-11.66,13.84-21.65,33.54-25.87v7.51c.01.6.02,1.34.02,2.24,0,.37,0,.73-.02,1.1Z"/><path class="cls-1" d="M79.47,15.9c.38-1.92,1.34-3.54,2.93-4.87,2.09-1.74,4.84-2.62,8.26-2.62,4.84,0,9.14,1.55,12.92,4.65,3.76,3.1,6.79,7.61,9.07,13.53h7.6s0-26.47,0-26.47h-6.97c-.24,1.81-.7,3.23-1.39,4.27-.68,1.05-1.55,1.57-2.59,1.57-.19,0-2.43-.99-6.72-2.99C98.29,1,94.09,0,89.96,0c-6.92,0-12.6,1.97-17.05,5.9-4.46,3.93-6.68,8.96-6.68,15.09,0,2.4.37,4.63,1.08,6.69,3.02-5.87,7.28-10.11,12.16-11.77Z"/></svg>